<svg width="167" height="40" viewBox="0 0 167 40" fill="none" xmlns="http://www.w3.org/2000/svg">
<path fill-rule="evenodd" clip-rule="evenodd" d="M7.5 10C7.5 8.61929 8.61929 7.5 10 7.5H13.75C15.1307 7.5 16.25 8.61929 16.25 10V30C16.25 31.3807 15.1307 32.5 13.75 32.5H10C8.61929 32.5 7.5 31.3807 7.5 30V10ZM13.75 10H10V30H13.75V10Z" fill="#00B37E"/>
<path fill-rule="evenodd" clip-rule="evenodd" d="M23.75 10C23.75 8.61929 24.8693 7.5 26.25 7.5H30C31.3807 7.5 32.5 8.61929 32.5 10V30C32.5 31.3807 31.3807 32.5 30 32.5H26.25C24.8693 32.5 23.75 31.3807 23.75 30V10ZM30 10H26.25V30H30V10Z" fill="#00B37E"/>
<path fill-rule="evenodd" clip-rule="evenodd" d="M30 12.5C30 11.8096 30.5596 11.25 31.25 11.25H35C35.663 11.25 36.2989 11.5134 36.7678 11.9822C37.2366 12.4511 37.5 13.087 37.5 13.75V26.25C37.5 26.913 37.2366 27.5489 36.7678 28.0178C36.2989 28.4866 35.663 28.75 35 28.75H31.25C30.5596 28.75 30 28.1904 30 27.5C30 26.8096 30.5596 26.25 31.25 26.25H35L35 13.75L31.25 13.75C30.5596 13.75 30 13.1904 30 12.5Z" fill="#00B37E"/>
<path fill-rule="evenodd" clip-rule="evenodd" d="M3.23223 11.9822C3.70107 11.5134 4.33696 11.25 5 11.25H8.75C9.44036 11.25 10 11.8096 10 12.5C10 13.1904 9.44036 13.75 8.75 13.75L5 13.75V26.25H8.75C9.44036 26.25 10 26.8096 10 27.5C10 28.1904 9.44036 28.75 8.75 28.75H5C4.33696 28.75 3.70108 28.4866 3.23223 28.0178C2.76339 27.5489 2.5 26.913 2.5 26.25V13.75C2.5 13.087 2.76339 12.4511 3.23223 11.9822Z" fill="#00B37E"/>
<path fill-rule="evenodd" clip-rule="evenodd" d="M13.75 20C13.75 19.3096 14.3096 18.75 15 18.75H25C25.6904 18.75 26.25 19.3096 26.25 20C26.25 20.6904 25.6904 21.25 25 21.25H15C14.3096 21.25 13.75 20.6904 13.75 20Z" fill="#00B37E"/>
<path fill-rule="evenodd" clip-rule="evenodd" d="M35 20C35 19.3096 35.5596 18.75 36.25 18.75H38.75C39.4404 18.75 40 19.3096 40 20C40 20.6904 39.4404 21.25 38.75 21.25H36.25C35.5596 21.25 35 20.6904 35 20Z" fill="#00B37E"/>
<path fill-rule="evenodd" clip-rule="evenodd" d="M0 20C0 19.3096 0.559644 18.75 1.25 18.75H3.75C4.44036 18.75 5 19.3096 5 20C5 20.6904 4.44036 21.25 3.75 21.25H1.25C0.559644 21.25 0 20.6904 0 20Z" fill="#00B37E"/>
<path d="M62.2227 12.998L56.8086 29.5H52.4473L59.8438 9.59375H62.6191L62.2227 12.998ZM66.7207 29.5L61.293 12.998L60.8555 9.59375H63.6582L71.0957 29.5H66.7207ZM66.4746 22.0898V25.3027H55.9609V22.0898H66.4746ZM76.1953 17.5508V35.1875H72.2578V14.707H75.9082L76.1953 17.5508ZM85.5605 21.9395V22.2266C85.5605 23.3021 85.4329 24.3001 85.1777 25.2207C84.9316 26.1413 84.5671 26.9434 84.084 27.627C83.6009 28.3014 82.9993 28.8301 82.2793 29.2129C81.5684 29.5866 80.748 29.7734 79.8184 29.7734C78.916 29.7734 78.1322 29.5911 77.4668 29.2266C76.8014 28.862 76.2409 28.3516 75.7852 27.6953C75.3385 27.0299 74.9785 26.2598 74.7051 25.3848C74.4316 24.5098 74.222 23.571 74.0762 22.5684V21.8164C74.222 20.7409 74.4316 19.7565 74.7051 18.8633C74.9785 17.9609 75.3385 17.1816 75.7852 16.5254C76.2409 15.86 76.7969 15.3451 77.4531 14.9805C78.1185 14.6159 78.8978 14.4336 79.791 14.4336C80.7298 14.4336 81.5547 14.6113 82.2656 14.9668C82.9857 15.3223 83.5872 15.8327 84.0703 16.498C84.5625 17.1634 84.9316 17.9564 85.1777 18.877C85.4329 19.7975 85.5605 20.8184 85.5605 21.9395ZM81.6094 22.2266V21.9395C81.6094 21.3105 81.5547 20.7318 81.4453 20.2031C81.3451 19.6654 81.181 19.196 80.9531 18.7949C80.7344 18.3939 80.4427 18.084 80.0781 17.8652C79.7227 17.6374 79.2897 17.5234 78.7793 17.5234C78.2415 17.5234 77.7812 17.61 77.3984 17.7832C77.0247 17.9564 76.7194 18.207 76.4824 18.5352C76.2454 18.8633 76.0677 19.2552 75.9492 19.7109C75.8307 20.1667 75.7578 20.6816 75.7305 21.2559V23.1562C75.776 23.8307 75.9036 24.4368 76.1133 24.9746C76.3229 25.5033 76.6465 25.9225 77.084 26.2324C77.5215 26.5423 78.0957 26.6973 78.8066 26.6973C79.3262 26.6973 79.7637 26.5833 80.1191 26.3555C80.4746 26.1185 80.7617 25.7949 80.9805 25.3848C81.2083 24.9746 81.3678 24.5007 81.459 23.9629C81.5592 23.4251 81.6094 22.8464 81.6094 22.2266ZM91.9453 17.5508V35.1875H88.0078V14.707H91.6582L91.9453 17.5508ZM101.311 21.9395V22.2266C101.311 23.3021 101.183 24.3001 100.928 25.2207C100.682 26.1413 100.317 26.9434 99.834 27.627C99.3509 28.3014 98.7493 28.8301 98.0293 29.2129C97.3184 29.5866 96.498 29.7734 95.5684 29.7734C94.666 29.7734 93.8822 29.5911 93.2168 29.2266C92.5514 28.862 91.9909 28.3516 91.5352 27.6953C91.0885 27.0299 90.7285 26.2598 90.4551 25.3848C90.1816 24.5098 89.972 23.571 89.8262 22.5684V21.8164C89.972 20.7409 90.1816 19.7565 90.4551 18.8633C90.7285 17.9609 91.0885 17.1816 91.5352 16.5254C91.9909 15.86 92.5469 15.3451 93.2031 14.9805C93.8685 14.6159 94.6478 14.4336 95.541 14.4336C96.4798 14.4336 97.3047 14.6113 98.0156 14.9668C98.7357 15.3223 99.3372 15.8327 99.8203 16.498C100.312 17.1634 100.682 17.9564 100.928 18.877C101.183 19.7975 101.311 20.8184 101.311 21.9395ZM97.3594 22.2266V21.9395C97.3594 21.3105 97.3047 20.7318 97.1953 20.2031C97.0951 19.6654 96.931 19.196 96.7031 18.7949C96.4844 18.3939 96.1927 18.084 95.8281 17.8652C95.4727 17.6374 95.0397 17.5234 94.5293 17.5234C93.9915 17.5234 93.5312 17.61 93.1484 17.7832C92.7747 17.9564 92.4694 18.207 92.2324 18.5352C91.9954 18.8633 91.8177 19.2552 91.6992 19.7109C91.5807 20.1667 91.5078 20.6816 91.4805 21.2559V23.1562C91.526 23.8307 91.6536 24.4368 91.8633 24.9746C92.0729 25.5033 92.3965 25.9225 92.834 26.2324C93.2715 26.5423 93.8457 26.6973 94.5566 26.6973C95.0762 26.6973 95.5137 26.5833 95.8691 26.3555C96.2246 26.1185 96.5117 25.7949 96.7305 25.3848C96.9583 24.9746 97.1178 24.5007 97.209 23.9629C97.3092 23.4251 97.3594 22.8464 97.3594 22.2266ZM126.754 19.0957V26.9844C126.444 27.3581 125.965 27.7637 125.318 28.2012C124.671 28.6296 123.837 28.9987 122.816 29.3086C121.796 29.6185 120.561 29.7734 119.111 29.7734C117.826 29.7734 116.655 29.5638 115.598 29.1445C114.54 28.7161 113.629 28.0918 112.863 27.2715C112.107 26.4512 111.523 25.4486 111.113 24.2637C110.703 23.0697 110.498 21.707 110.498 20.1758V18.9316C110.498 17.4004 110.694 16.0378 111.086 14.8438C111.487 13.6497 112.057 12.6426 112.795 11.8223C113.533 11.002 114.413 10.3776 115.434 9.94922C116.454 9.52083 117.589 9.30664 118.838 9.30664C120.57 9.30664 121.992 9.58919 123.104 10.1543C124.215 10.7103 125.063 11.485 125.646 12.4785C126.239 13.4629 126.604 14.5931 126.74 15.8691H122.762C122.661 15.1947 122.47 14.6068 122.188 14.1055C121.905 13.6042 121.499 13.2122 120.971 12.9297C120.451 12.6471 119.777 12.5059 118.947 12.5059C118.264 12.5059 117.653 12.6471 117.115 12.9297C116.587 13.2031 116.14 13.6087 115.775 14.1465C115.411 14.6842 115.133 15.3496 114.941 16.1426C114.75 16.9355 114.654 17.8561 114.654 18.9043V20.1758C114.654 21.2148 114.755 22.1354 114.955 22.9375C115.156 23.7305 115.452 24.4004 115.844 24.9473C116.245 25.485 116.737 25.8906 117.32 26.1641C117.904 26.4375 118.583 26.5742 119.357 26.5742C120.005 26.5742 120.542 26.5195 120.971 26.4102C121.408 26.3008 121.759 26.1686 122.023 26.0137C122.297 25.8496 122.507 25.6947 122.652 25.5488V22.0215H118.906V19.0957H126.754ZM134.205 27.832L138.129 14.707H142.354L136.406 31.7285C136.279 32.1022 136.105 32.5033 135.887 32.9316C135.677 33.36 135.39 33.7656 135.025 34.1484C134.67 34.5404 134.219 34.8594 133.672 35.1055C133.134 35.3516 132.473 35.4746 131.689 35.4746C131.316 35.4746 131.01 35.4518 130.773 35.4062C130.536 35.3607 130.254 35.2969 129.926 35.2148V32.3301C130.026 32.3301 130.131 32.3301 130.24 32.3301C130.35 32.3392 130.454 32.3438 130.555 32.3438C131.074 32.3438 131.498 32.2845 131.826 32.166C132.154 32.0475 132.419 31.8652 132.619 31.6191C132.82 31.3822 132.979 31.0723 133.098 30.6895L134.205 27.832ZM132.564 14.707L135.777 25.4258L136.338 29.5957L133.658 29.8828L128.34 14.707H132.564ZM147.863 17.7695V29.5H143.912V14.707H147.617L147.863 17.7695ZM147.316 21.584H146.223C146.223 20.554 146.346 19.6061 146.592 18.7402C146.847 17.8652 147.216 17.1087 147.699 16.4707C148.191 15.8236 148.798 15.3223 149.518 14.9668C150.238 14.6113 151.072 14.4336 152.02 14.4336C152.676 14.4336 153.277 14.5339 153.824 14.7344C154.371 14.9258 154.84 15.2311 155.232 15.6504C155.633 16.0605 155.943 16.5983 156.162 17.2637C156.381 17.9199 156.49 18.7083 156.49 19.6289V29.5H152.553V20.0664C152.553 19.3919 152.462 18.8724 152.279 18.5078C152.097 18.1432 151.837 17.888 151.5 17.7422C151.172 17.5964 150.775 17.5234 150.311 17.5234C149.8 17.5234 149.354 17.6283 148.971 17.8379C148.597 18.0475 148.287 18.3392 148.041 18.7129C147.795 19.0775 147.613 19.5059 147.494 19.998C147.376 20.4902 147.316 21.0189 147.316 21.584ZM156.121 21.1328L154.713 21.3105C154.713 20.3444 154.831 19.4466 155.068 18.6172C155.314 17.7878 155.674 17.0586 156.148 16.4297C156.632 15.8008 157.229 15.3132 157.939 14.9668C158.65 14.6113 159.471 14.4336 160.4 14.4336C161.111 14.4336 161.758 14.5384 162.342 14.748C162.925 14.9486 163.422 15.2721 163.832 15.7188C164.251 16.1562 164.57 16.7305 164.789 17.4414C165.017 18.1523 165.131 19.0228 165.131 20.0527V29.5H161.18V20.0527C161.18 19.3691 161.089 18.8496 160.906 18.4941C160.733 18.1296 160.478 17.8789 160.141 17.7422C159.812 17.5964 159.421 17.5234 158.965 17.5234C158.491 17.5234 158.076 17.6191 157.721 17.8105C157.365 17.9928 157.069 18.248 156.832 18.5762C156.595 18.9043 156.417 19.2871 156.299 19.7246C156.18 20.153 156.121 20.6224 156.121 21.1328Z" fill="white"/>
</svg>
